<svg id="visual" viewBox="0 0 900 600" width="900" height="600" xmlns="http://www.w3.org/2000/svg" xmlns:xlink="http://www.w3.org/1999/xlink" version="1.1"><rect x="0" y="0" width="900" height="600" fill="#F9FAFB"></rect><path d="M0 463L30 455.8C60 448.7 120 434.3 180 437.7C240 441 300 462 360 476.7C420 491.3 480 499.7 540 484.7C600 469.7 660 431.3 720 417.7C780 404 840 415 870 420.5L900 426L900 601L870 601C840 601 780 601 720 601C660 601 600 601 540 601C480 601 420 601 360 601C300 601 240 601 180 601C120 601 60 601 30 601L0 601Z" fill="#F87171" stroke-linecap="round" stroke-linejoin="miter"></path></svg>